<svg width="37" height="35" viewBox="0 0 37 35" fill="none" xmlns="http://www.w3.org/2000/svg">
<g clip-path="url(#clip0_502_254)">
<path d="M30 27C30 27.5304 29.7893 28.0391 29.4142 28.4142C29.0391 28.7893 28.5304 29 28 29H4C3.46957 29 2.96086 28.7893 2.58579 28.4142C2.21071 28.0391 2 27.5304 2 27V15C2 14.4696 2.21071 13.9609 2.58579 13.5858C2.96086 13.2107 3.46957 13 4 13H6.344C7.93448 12.9991 9.45953 12.3668 10.584 11.242L12.244 9.586C12.618 9.21188 13.125 9.00117 13.654 9H18.342C18.8724 9.00011 19.381 9.2109 19.756 9.586L21.412 11.242C21.9693 11.7994 22.6309 12.2416 23.3591 12.5432C24.0873 12.8449 24.8678 13.0001 25.656 13H28C28.5304 13 29.0391 13.2107 29.4142 13.5858C29.7893 13.9609 30 14.4696 30 15V27ZM4 11C2.93913 11 1.92172 11.4214 1.17157 12.1716C0.421427 12.9217 0 13.9391 0 15L0 27C0 28.0609 0.421427 29.0783 1.17157 29.8284C1.92172 30.5786 2.93913 31 4 31H28C29.0609 31 30.0783 30.5786 30.8284 29.8284C31.5786 29.0783 32 28.0609 32 27V15C32 13.9391 31.5786 12.9217 30.8284 12.1716C30.0783 11.4214 29.0609 11 28 11H25.656C24.5952 10.9998 23.578 10.5782 22.828 9.828L21.172 8.172C20.422 7.4218 19.4048 7.00023 18.344 7H13.656C12.5952 7.00023 11.578 7.4218 10.828 8.172L9.172 9.828C8.42203 10.5782 7.40478 10.9998 6.344 11H4Z" fill="#CACCC6"/>
<path d="M16 25C14.6739 25 13.4021 24.4732 12.4645 23.5355C11.5268 22.5979 11 21.3261 11 20C11 18.6739 11.5268 17.4021 12.4645 16.4645C13.4021 15.5268 14.6739 15 16 15C17.3261 15 18.5979 15.5268 19.5355 16.4645C20.4732 17.4021 21 18.6739 21 20C21 21.3261 20.4732 22.5979 19.5355 23.5355C18.5979 24.4732 17.3261 25 16 25ZM16 27C17.8565 27 19.637 26.2625 20.9497 24.9497C22.2625 23.637 23 21.8565 23 20C23 18.1435 22.2625 16.363 20.9497 15.0503C19.637 13.7375 17.8565 13 16 13C14.1435 13 12.363 13.7375 11.0503 15.0503C9.7375 16.363 9 18.1435 9 20C9 21.8565 9.7375 23.637 11.0503 24.9497C12.363 26.2625 14.1435 27 16 27ZM6 16C6 16.2652 5.89464 16.5196 5.70711 16.7071C5.51957 16.8946 5.26522 17 5 17C4.73478 17 4.48043 16.8946 4.29289 16.7071C4.10536 16.5196 4 16.2652 4 16C4 15.7348 4.10536 15.4804 4.29289 15.2929C4.48043 15.1054 4.73478 15 5 15C5.26522 15 5.51957 15.1054 5.70711 15.2929C5.89464 15.4804 6 15.7348 6 16Z" fill="#CACCC6"/>
</g>
<path d="M37 7.5C37 9.48912 36.2098 11.3968 34.8033 12.8033C33.3968 14.2098 31.4891 15 29.5 15C27.5109 15 25.6032 14.2098 24.1967 12.8033C22.7902 11.3968 22 9.48912 22 7.5C22 5.51088 22.7902 3.60322 24.1967 2.1967C25.6032 0.790176 27.5109 0 29.5 0C31.4891 0 33.3968 0.790176 34.8033 2.1967C36.2098 3.60322 37 5.51088 37 7.5ZM29.9688 4.21875C29.9688 4.09443 29.9194 3.9752 29.8315 3.88729C29.7435 3.79939 29.6243 3.75 29.5 3.75C29.3757 3.75 29.2565 3.79939 29.1685 3.88729C29.0806 3.9752 29.0312 4.09443 29.0312 4.21875V7.03125H26.2188C26.0944 7.03125 25.9752 7.08064 25.8873 7.16854C25.7994 7.25645 25.75 7.37568 25.75 7.5C25.75 7.62432 25.7994 7.74355 25.8873 7.83146C25.9752 7.91936 26.0944 7.96875 26.2188 7.96875H29.0312V10.7812C29.0312 10.9056 29.0806 11.0248 29.1685 11.1127C29.2565 11.2006 29.3757 11.25 29.5 11.25C29.6243 11.25 29.7435 11.2006 29.8315 11.1127C29.9194 11.0248 29.9688 10.9056 29.9688 10.7812V7.96875H32.7812C32.9056 7.96875 33.0248 7.91936 33.1127 7.83146C33.2006 7.74355 33.25 7.62432 33.25 7.5C33.25 7.37568 33.2006 7.25645 33.1127 7.16854C33.0248 7.08064 32.9056 7.03125 32.7812 7.03125H29.9688V4.21875Z" fill="#59966D"/>
<defs>
<clipPath id="clip0_502_254">
<rect width="32" height="32" fill="white" transform="translate(0 3)"/>
</clipPath>
</defs>
</svg>
