<svg width="35" height="35" viewBox="0 0 35 35" fill="none" xmlns="http://www.w3.org/2000/svg">
<path d="M21.1509 1.89L17.4999 0L13.849 1.89L9.78463 2.50688L7.94275 6.18187L5.01807 9.06938L5.68744 13.125L5.01807 17.1806L7.94275 20.0681L9.78463 23.7431L13.849 24.36L17.4999 26.25L21.1509 24.36L25.2153 23.7431L27.0571 20.0681L29.9818 17.1806L29.3124 13.125L29.9818 9.06938L27.0571 6.18187L25.2153 2.50688L21.1509 1.89ZM23.7671 4.49969L25.2634 7.48562L27.639 9.83062L27.0965 13.125L27.639 16.4194L25.2634 18.7644L23.7671 21.7503L20.464 22.2512L17.4999 23.7869L14.5359 22.2512L11.2328 21.7503L9.73651 18.7644L7.36088 16.4194L7.90557 13.125L7.35869 9.83062L9.73651 7.48562L11.2328 4.49969L14.5359 3.99875L17.4999 2.46312L20.4662 3.99875L23.7671 4.49969Z" fill="#323432"/>
<path d="M8.75 25.7993V34.9999L17.5 32.8124L26.25 34.9999V25.7993L21.8356 26.4687L17.5 28.7131L13.1644 26.4687L8.75 25.7993Z" fill="#323432"/>
</svg>
