<svg width="34" height="40" viewBox="0 0 34 40" fill="none" xmlns="http://www.w3.org/2000/svg">
<g clip-path="url(#clip0_307_278)">
<path d="M20.5469 2.11553L17.0003 0L13.4536 2.11553L9.50538 2.80601L7.71613 6.91954L4.875 10.1516L5.52525 14.6912L4.875 19.2308L7.71613 22.4628L9.50538 26.5763L13.4536 27.2668L17.0003 29.3824L20.5469 27.2668L24.4951 26.5763L26.2844 22.4628L29.1255 19.2308L28.4753 14.6912L29.1255 10.1516L26.2844 6.91954L24.4951 2.80601L20.5469 2.11553ZM23.0884 5.03662L24.5419 8.37887L26.8496 11.0037L26.3226 14.6912L26.8496 18.3787L24.5419 21.0035L23.0884 24.3457L19.8796 24.9064L17.0003 26.6253L14.1209 24.9064L10.9121 24.3457L9.45863 21.0035L7.15088 18.3787L7.68 14.6912L7.14875 11.0037L9.45863 8.37887L10.9121 5.03662L14.1209 4.47591L17.0003 2.75704L19.8818 4.47591L23.0884 5.03662Z" fill="#59966D"/>
<path d="M8.5 28.8779V39.1764L17 36.7279L25.5 39.1764V28.8779L21.2118 29.6272L17 32.1394L12.7883 29.6272L8.5 28.8779Z" fill="#59966D"/>
</g>
<defs>
<clipPath id="clip0_307_278">
<rect width="34" height="39.1765" fill="white"/>
</clipPath>
</defs>
</svg>
