<svg xmlns="http://www.w3.org/2000/svg" viewBox="0 0 1530 380"><defs><style>.a{fill:#fff;}</style></defs><path class="a" d="M454.84,189.12a35.6,35.6,0,0,0,61,24.69L539,236.22a67.76,67.76,0,1,1,2.85-91.17l-24.51,21.09a35.44,35.44,0,0,0-62.49,23Z"/><path class="a" d="M717.71,188.93a68,68,0,1,1-68-68A67.93,67.93,0,0,1,717.71,188.93Zm-32.29,0a35.71,35.71,0,1,0-35.71,35.71A35.67,35.67,0,0,0,685.42,188.93Z"/><path class="a" d="M858.25,123.21h32.29V255.6H855.21l-52-79v78.64h-32.3V122.64h35.52l51.86,78.64Z"/><path class="a" d="M1065.27,122.83v32.29h-41.79V255.6H991.19V155.12H949.4V122.83Z"/><path class="a" d="M1219.48,199l22.79,56.6h-35.51L1187,205.08h-32.48V255.6h-32.29V122.83H1198A41.07,41.07,0,0,1,1219.48,199Zm-12.72-35.14a8.85,8.85,0,0,0-8.75-8.74h-43.49v17.67H1198A8.9,8.9,0,0,0,1206.76,163.86Z"/><path class="a" d="M1299.24,122.83h32.29V255.22h-32.29Z"/><path class="a" d="M1505.7,188.36a40.9,40.9,0,0,1-31.92,66.86H1398V122.83h74.45a41.18,41.18,0,0,1,33.25,65.53ZM1430.29,173h42.16a8.84,8.84,0,0,0,0-17.67h-42.16Zm52.23,41.21a9.08,9.08,0,0,0-9.12-8.93h-43.11v17.67h43.49A8.84,8.84,0,0,0,1482.52,214.19Z"/><path class="a" d="M334.86,221l-108.24.37,70.55,61.08A140.43,140.43,0,0,1,184,330.59C111.55,327,53.3,268,50.5,195.56,47.39,115.42,111.69,49.23,191.16,49.23a140.2,140.2,0,0,1,91,33.41l27.06-23.31a175.51,175.51,0,0,0-124-45.39C93.36,17,18.74,91.17,15.14,183c-3.94,100.33,76.54,183.21,176,183.21A175.77,175.77,0,0,0,323.9,305.64L350,328.22Z"/><path class="a" d="M335.56,158,350.68,50.84l-71,61.49a117.56,117.56,0,0,0-90.49-40.16c-61.49,1-112.41,50-115.68,111.41a117.76,117.76,0,0,0,189.59,99.68l-27.65-23.75a82.45,82.45,0,1,1,17.5-124l-25.61,22.18Z"/></svg>