<svg xmlns="http://www.w3.org/2000/svg" viewBox="0 0 1020 720"><defs><style>.a{fill:#fff;}.b{fill:#5a7864;}</style></defs><path class="a" d="M39.56,645.36A32.58,32.58,0,0,0,95.37,668l21.21,20.51A62,62,0,1,1,72.07,583.28,62.27,62.27,0,0,1,119.19,605l-22.43,19.3a32.44,32.44,0,0,0-57.2,21Z"/><path class="a" d="M280.18,645.18a62.25,62.25,0,1,1-62.25-62.24A62.19,62.19,0,0,1,280.18,645.18Zm-29.56,0a32.69,32.69,0,1,0-32.69,32.69A32.65,32.65,0,0,0,250.62,645.18Z"/><path class="a" d="M408.83,585h29.55V706.21H406L358.4,633.88v72H328.84V584.5h32.52l47.47,72Z"/><path class="a" d="M598.32,584.68v29.55H560.07v92H530.51v-92H492.26V584.68Z"/><path class="a" d="M739.49,654.4l20.86,51.81H727.84L709.75,660H680v46.25H650.47V584.68h69.37a37.59,37.59,0,0,1,19.65,69.72Zm-11.65-32.17a8.09,8.09,0,0,0-8-8H680V630.4h39.81A8.13,8.13,0,0,0,727.84,622.23Z"/><path class="a" d="M812.5,584.68h29.56V705.86H812.5Z"/><path class="a" d="M1001.48,644.66a37.43,37.43,0,0,1-29.21,61.2H902.9V584.68h68.16a37.69,37.69,0,0,1,30.42,60Zm-69-14.08h38.6a8.09,8.09,0,0,0,0-16.17h-38.6Zm47.81,37.73a8.32,8.32,0,0,0-8.35-8.18H932.46V676.3h39.81A8.09,8.09,0,0,0,980.27,668.31Z"/><path class="b" d="M707.3,281.5,566.82,282l91.57,79.29a182.31,182.31,0,0,1-146.95,62.42c-94-4.72-169.57-81.24-173.21-175.25-4-104,79.43-189.93,182.57-189.93a181.92,181.92,0,0,1,118,43.37L674,71.61A227.78,227.78,0,0,0,513,12.7c-119.14,4-216,100.24-220.66,219.36-5.11,130.22,99.35,237.79,228.46,237.79A228.11,228.11,0,0,0,693.08,391.3l33.85,29.31Z"/><path class="b" d="M708.21,199.7,727.84,60.6l-92.18,79.81A152.51,152.51,0,0,0,518.22,88.28c-79.82,1.32-145.9,64.89-150.15,144.6C363.37,321,433.7,394.16,520.8,394.16a152.14,152.14,0,0,0,93.34-31.91l-35.88-30.83a106.45,106.45,0,0,1-66.9,16.4c-51.75-4.48-93.23-46.32-97.25-98.11A107,107,0,0,1,601,170.44l-33.25,28.79Z"/></svg>