<svg width="150" height="50" viewBox="0 0 451 112" fill="none" xmlns="http://www.w3.org/2000/svg">
<path d="M134.058 55.7405C134.073 57.8175 134.704 59.8433 135.871 61.5615C137.038 63.2796 138.688 64.6128 140.614 65.392C142.539 66.1713 144.652 66.3616 146.686 65.9389C148.719 65.5162 150.582 64.4995 152.037 63.0175L158.863 69.6226C156.059 72.5169 152.445 74.4951 148.495 75.2972C144.546 76.0994 140.446 75.688 136.735 74.117C133.024 72.5461 129.875 69.8891 127.701 66.4953C125.528 63.1015 124.432 59.1296 124.558 55.1015C124.684 51.0735 126.026 47.1777 128.407 43.9263C130.788 40.6748 134.097 38.2197 137.899 36.8836C141.701 35.5476 145.818 35.393 149.71 36.4403C153.601 37.4875 157.085 39.6876 159.703 42.7514L152.479 48.9674C151.095 47.3322 149.242 46.1622 147.17 45.6159C145.098 45.0696 142.909 45.1735 140.899 45.9135C138.888 46.6535 137.154 47.9938 135.931 49.7527C134.707 51.5116 134.055 53.604 134.061 55.7464L134.058 55.7405Z" fill="white"/>
<path d="M211.536 55.6847C211.536 59.6486 210.36 63.5236 208.158 66.8195C205.956 70.1154 202.826 72.6842 199.163 74.2012C195.501 75.7181 191.471 76.115 187.584 75.3417C183.696 74.5684 180.125 72.6595 177.322 69.8566C174.519 67.0537 172.61 63.4825 171.837 59.5947C171.063 55.7069 171.46 51.6771 172.977 48.0149C174.494 44.3527 177.063 41.2225 180.359 39.0203C183.655 36.818 187.53 35.6426 191.494 35.6426C194.126 35.6399 196.734 36.1564 199.167 37.1627C201.599 38.1689 203.81 39.6451 205.672 41.5067C207.533 43.3684 209.009 45.5789 210.016 48.0117C211.022 50.4445 211.538 53.052 211.536 55.6847ZM202.019 55.6847C202.019 53.603 201.401 51.5681 200.245 49.8373C199.088 48.1065 197.445 46.7574 195.521 45.9608C193.598 45.1642 191.482 44.9558 189.44 45.3619C187.399 45.768 185.523 46.7704 184.051 48.2424C182.579 49.7143 181.577 51.5897 181.171 53.6314C180.765 55.673 180.973 57.7893 181.77 59.7125C182.566 61.6357 183.915 63.2794 185.646 64.436C187.377 65.5925 189.412 66.2097 191.494 66.2097C192.876 66.2113 194.245 65.9401 195.523 65.4117C196.801 64.8833 197.962 64.1081 198.939 63.1305C199.917 62.1528 200.692 60.9919 201.221 59.7143C201.749 58.4366 202.02 57.0673 202.019 55.6847Z" fill="white"/>
<path d="M252.958 36.3145H262.475V75.3347H252.062L236.736 52.0505V75.2286H227.216V36.1465H237.685L252.97 59.3246L252.958 36.3145Z" fill="white"/>
<path d="M313.974 36.2025V45.7196H301.657V75.3347H292.14V45.7196H279.823V36.2025H313.974Z" fill="white"/>
<path d="M359.426 58.6526L366.143 75.3347H355.677L349.853 60.4446H340.28V75.3347H330.763V36.2025H353.095C355.74 36.1924 358.316 37.0493 360.429 38.642C362.541 40.2348 364.073 42.4756 364.791 45.0218C365.509 47.568 365.374 50.2793 364.405 52.7409C363.436 55.2026 361.687 57.279 359.426 58.6526ZM355.677 48.2955C355.668 47.6144 355.394 46.9637 354.912 46.4823C354.43 46.0009 353.779 45.7272 353.098 45.7195H340.28V50.9275H353.095C353.785 50.9167 354.443 50.6343 354.926 50.1416C355.41 49.649 355.679 48.9857 355.677 48.2955Z" fill="white"/>
<path d="M382.934 36.2025H392.451V75.2227H382.934V36.2025Z" fill="white"/>
<path d="M443.785 55.5166C445.24 57.2876 446.16 59.4366 446.437 61.7117C446.714 63.9868 446.336 66.2937 445.349 68.362C444.361 70.4302 442.805 72.1741 440.862 73.3893C438.918 74.6044 436.669 75.2404 434.377 75.2227H412.042V36.2025H433.985C436.229 36.2003 438.43 36.8202 440.343 37.9933C442.255 39.1664 443.806 40.8468 444.821 42.8478C445.836 44.8489 446.277 47.0922 446.094 49.3286C445.911 51.5651 445.112 53.707 443.785 55.5166ZM421.559 50.9895H433.985C434.661 50.9667 435.301 50.6824 435.771 50.1966C436.24 49.7107 436.503 49.0613 436.503 48.3855C436.503 47.7096 436.24 47.0602 435.771 46.5744C435.301 46.0885 434.661 45.8042 433.985 45.7815H421.559V50.9895ZM436.953 63.1356C436.942 62.4314 436.653 61.7603 436.15 61.2676C435.647 60.7749 434.969 60.5004 434.265 60.5036H421.559V65.7116H434.377C435.059 65.7039 435.711 65.4292 436.192 64.9465C436.674 64.4638 436.947 63.8115 436.953 63.1297V63.1356Z" fill="white"/>
<path d="M98.6956 65.1369L66.7932 65.2459L87.5869 83.2485C83.4679 87.989 78.3241 91.7301 72.5451 94.1884C66.7661 96.6466 60.5035 97.7576 54.2316 97.4371C32.8779 96.379 15.7094 78.9895 14.8842 57.6388C13.9675 34.0186 32.9191 14.51 56.3419 14.51C66.1687 14.4988 75.6779 17.99 83.1629 24.3571L91.1385 17.4868C81.162 8.43994 68.0506 3.64052 54.5911 4.10869C27.5166 5.01058 5.52334 26.8712 4.46228 53.9369C3.30102 83.5078 27.0215 107.936 56.336 107.936C63.7562 107.936 71.0899 106.342 77.8408 103.262C84.5916 100.182 90.602 95.6878 95.4652 90.0834L103.158 96.7386L98.6956 65.1369Z" fill="#5A7864"/>
<path d="M98.9018 46.5684L103.358 14.9844L82.4319 33.1077C79.1146 29.3139 75.0096 26.2893 70.4033 24.245C65.7969 22.2007 60.8001 21.1858 55.7612 21.2711C37.6378 21.5658 22.6298 36.008 21.666 54.1077C21.2987 60.7489 22.8474 67.3558 26.1278 73.142C29.4082 78.9281 34.282 83.6499 40.1693 86.7452C46.0565 89.8405 52.7091 91.179 59.3354 90.6014C65.9616 90.0238 72.2823 87.5544 77.5452 83.4871L69.3957 76.4871C65.4788 78.9876 60.9271 80.3126 56.2801 80.3051C51.6331 80.2975 47.0857 78.9577 43.177 76.4445C39.2682 73.9313 36.162 70.3501 34.2266 66.1254C32.2911 61.9006 31.6076 57.2095 32.257 52.6081C32.9064 48.0067 34.8614 43.688 37.8905 40.1639C40.9195 36.6398 44.8955 34.058 49.3471 32.7247C53.7987 31.3914 58.5393 31.3624 63.0069 32.6412C67.4744 33.92 71.4817 36.4529 74.5536 39.9397L67.0054 46.477L98.9018 46.5684Z" fill="#5A7864"/>
</svg>
