<svg width="36" height="27" viewBox="0 0 36 27" fill="none" xmlns="http://www.w3.org/2000/svg">
<path d="M0 4.66655C0 3.63517 0.355579 2.64602 0.988515 1.91673C1.62145 1.18743 2.47989 0.77771 3.375 0.77771H32.625C33.5201 0.77771 34.3786 1.18743 35.0115 1.91673C35.6444 2.64602 36 3.63517 36 4.66655V8.55539C36 8.89919 35.8815 9.2289 35.6705 9.472C35.4595 9.7151 35.1734 9.85167 34.875 9.85167C33.9799 9.85167 33.1214 10.2614 32.4885 10.9907C31.8556 11.72 31.5 12.7091 31.5 13.7405C31.5 14.7719 31.8556 15.761 32.4885 16.4903C33.1214 17.2196 33.9799 17.6294 34.875 17.6294C35.1734 17.6294 35.4595 17.7659 35.6705 18.009C35.8815 18.2521 36 18.5818 36 18.9256V22.8145C36 23.8459 35.6444 24.835 35.0115 25.5643C34.3786 26.2936 33.5201 26.7033 32.625 26.7033H3.375C2.47989 26.7033 1.62145 26.2936 0.988515 25.5643C0.355579 24.835 0 23.8459 0 22.8145L0 18.9256C0 18.5818 0.118526 18.2521 0.329505 18.009C0.540483 17.7659 0.826631 17.6294 1.125 17.6294C2.02011 17.6294 2.87855 17.2196 3.51149 16.4903C4.14442 15.761 4.5 14.7719 4.5 13.7405C4.5 12.7091 4.14442 11.72 3.51149 10.9907C2.87855 10.2614 2.02011 9.85167 1.125 9.85167C0.826631 9.85167 0.540483 9.7151 0.329505 9.472C0.118526 9.2289 0 8.89919 0 8.55539V4.66655ZM3.375 3.37027C3.07663 3.37027 2.79048 3.50684 2.5795 3.74994C2.36853 3.99304 2.25 4.32276 2.25 4.66655V7.38874C3.52157 7.68625 4.66478 8.48115 5.48592 9.63875C6.30707 10.7963 6.75564 12.2454 6.75564 13.7405C6.75564 15.2356 6.30707 16.6847 5.48592 17.8423C4.66478 18.9999 3.52157 19.7948 2.25 20.0923V22.8145C2.25 23.1583 2.36853 23.488 2.5795 23.7311C2.79048 23.9742 3.07663 24.1108 3.375 24.1108H32.625C32.9234 24.1108 33.2095 23.9742 33.4205 23.7311C33.6315 23.488 33.75 23.1583 33.75 22.8145V20.0923C32.4784 19.7948 31.3352 18.9999 30.5141 17.8423C29.6929 16.6847 29.2444 15.2356 29.2444 13.7405C29.2444 12.2454 29.6929 10.7963 30.5141 9.63875C31.3352 8.48115 32.4784 7.68625 33.75 7.38874V4.66655C33.75 4.32276 33.6315 3.99304 33.4205 3.74994C33.2095 3.50684 32.9234 3.37027 32.625 3.37027H3.375Z" fill="#59966D"/>
</svg>
