<?xml version="1.0" encoding="UTF-8"?>
<svg xmlns="http://www.w3.org/2000/svg" xmlns:xlink="http://www.w3.org/1999/xlink" width="35px" height="35px" viewBox="0 0 35 35" version="1.1">
<g id="surface1">
<path style=" stroke:none;fill-rule:evenodd;fill:rgb(0%,0%,0%);fill-opacity:1;" d="M 19.046875 3.28125 C 18.191406 2.425781 16.808594 2.425781 15.953125 3.28125 L 1.414062 17.820312 C 0.984375 18.246094 0.988281 18.941406 1.414062 19.367188 C 1.84375 19.792969 2.535156 19.792969 2.960938 19.367188 L 4.375 17.953125 L 4.375 29.53125 C 4.375 31.34375 5.84375 32.8125 7.65625 32.8125 L 27.34375 32.8125 C 29.15625 32.8125 30.625 31.34375 30.625 29.53125 L 30.625 17.953125 L 32.039062 19.367188 C 32.464844 19.792969 33.15625 19.792969 33.585938 19.367188 C 34.011719 18.941406 34.015625 18.246094 33.585938 17.820312 L 28.4375 12.671875 L 28.4375 5.46875 C 28.4375 4.863281 27.949219 4.375 27.34375 4.375 L 25.15625 4.375 C 24.550781 4.375 24.0625 4.863281 24.0625 5.46875 L 24.0625 8.296875 Z M 28.4375 15.765625 L 17.5 4.828125 L 6.5625 15.765625 L 6.5625 29.53125 C 6.5625 30.136719 7.050781 30.625 7.65625 30.625 L 27.34375 30.625 C 27.949219 30.625 28.4375 30.136719 28.4375 29.53125 Z M 17.5 15.273438 C 21.140625 11.613281 30.242188 18.015625 17.5 26.25 C 4.757812 18.015625 13.859375 11.613281 17.5 15.273438 Z M 17.5 15.273438 "/>
</g>
</svg>
