<svg width="50" height="53" viewBox="0 0 50 53" fill="none" xmlns="http://www.w3.org/2000/svg">
<g clip-path="url(#clip0)">
<path d="M47.6087 30.892L31.5107 30.9466L42.0031 40.0318C37.9454 44.6747 31.8755 47.5216 25.1663 47.1849C14.401 46.6441 5.73622 37.8757 5.31938 27.1032C4.8602 15.1838 14.4209 5.33945 26.2378 5.33945C31.1938 5.33523 35.9891 7.09725 39.7633 10.3094L43.7888 6.83996C38.9357 2.45221 32.4378 -0.149833 25.3439 0.0899629C11.6918 0.548126 0.594384 11.5777 0.0586693 25.2267C-0.526535 40.1486 11.4429 52.4752 26.2378 52.4752C34.1066 52.4752 41.1724 48.9844 45.9786 43.4736L49.8561 46.8323L47.6087 30.892Z" fill="#576658"/>
<path d="M47.7128 21.5194L49.9617 5.5791L39.4005 14.725C36.1271 10.997 31.3031 8.66278 25.9429 8.75206C16.7969 8.90512 9.2245 16.1868 8.73777 25.3214C8.1995 35.4163 16.2582 43.8016 26.2378 43.8016C30.11 43.8045 33.873 42.5182 36.9332 40.1454L32.8219 36.6128C30.5453 38.0709 27.849 38.7318 25.1561 38.4919C19.2255 37.9786 14.473 33.1857 14.0123 27.2495C13.4536 20.051 19.1536 14.0123 26.2378 14.0123C27.9764 14.012 29.6951 14.3824 31.2793 15.0987C32.8635 15.815 34.2768 16.8608 35.425 18.1663L31.6153 21.4648L47.7128 21.5194Z" fill="#576658"/>
</g>
<defs>
<clipPath id="clip0">
<rect width="50" height="52.551" fill="white"/>
</clipPath>
</defs>
</svg>
