<svg width="26" height="23" viewBox="0 0 26 23" fill="none" xmlns="http://www.w3.org/2000/svg">
<rect x="1.5" y="1.5" width="23" height="20" rx="3.5" stroke="#5A7864" stroke-width="3"/>
<rect x="3" y="2" width="20" height="5" fill="#5A7864"/>
<rect x="10" y="9" width="2" height="2" rx="0.5" fill="#5A7864"/>
<rect x="10" y="12.5" width="2" height="2" rx="0.5" fill="#5A7864"/>
<rect x="10" y="16" width="2" height="2" rx="0.5" fill="#5A7864"/>
<rect x="6" y="12.5" width="2" height="2" rx="0.5" fill="#5A7864"/>
<rect x="6" y="16" width="2" height="2" rx="0.5" fill="#5A7864"/>
<rect x="14" y="9" width="2" height="2" rx="0.5" fill="#5A7864"/>
<rect x="14" y="12.5" width="2" height="2" rx="0.5" fill="#5A7864"/>
<rect x="14" y="16" width="2" height="2" rx="0.5" fill="#5A7864"/>
<rect x="18" y="9" width="2" height="2" rx="0.5" fill="#5A7864"/>
<rect x="18" y="12.5" width="2" height="2" rx="0.5" fill="#5A7864"/>
<rect x="18" y="16" width="2" height="2" rx="0.5" fill="#5A7864"/>
</svg>
