<svg width="13" height="13" viewBox="0 0 13 13" fill="none" xmlns="http://www.w3.org/2000/svg">
<rect x="0.5" y="0.5" width="12" height="12" rx="6" fill="#59966D"/>
<path d="M13 6.5C13 8.22391 12.3152 9.87721 11.0962 11.0962C9.87721 12.3152 8.22391 13 6.5 13C4.77609 13 3.12279 12.3152 1.90381 11.0962C0.68482 9.87721 0 8.22391 0 6.5C0 4.77609 0.68482 3.12279 1.90381 1.90381C3.12279 0.68482 4.77609 0 6.5 0C8.22391 0 9.87721 0.68482 11.0962 1.90381C12.3152 3.12279 13 4.77609 13 6.5V6.5ZM4.35013 3.77487C4.27384 3.69859 4.17038 3.65574 4.0625 3.65574C3.95462 3.65574 3.85116 3.69859 3.77487 3.77487C3.69859 3.85116 3.65574 3.95462 3.65574 4.0625C3.65574 4.17038 3.69859 4.27384 3.77487 4.35013L5.92556 6.5L3.77487 8.64987C3.7371 8.68765 3.70714 8.73249 3.6867 8.78184C3.66626 8.83119 3.65574 8.88408 3.65574 8.9375C3.65574 8.99092 3.66626 9.04381 3.6867 9.09316C3.70714 9.14251 3.7371 9.18735 3.77487 9.22513C3.85116 9.30141 3.95462 9.34426 4.0625 9.34426C4.11592 9.34426 4.16881 9.33374 4.21816 9.3133C4.26751 9.29286 4.31235 9.2629 4.35013 9.22513L6.5 7.07444L8.64987 9.22513C8.68765 9.2629 8.73249 9.29286 8.78184 9.3133C8.83119 9.33374 8.88408 9.34426 8.9375 9.34426C8.99092 9.34426 9.04381 9.33374 9.09316 9.3133C9.14251 9.29286 9.18735 9.2629 9.22513 9.22513C9.2629 9.18735 9.29286 9.14251 9.3133 9.09316C9.33374 9.04381 9.34426 8.99092 9.34426 8.9375C9.34426 8.88408 9.33374 8.83119 9.3133 8.78184C9.29286 8.73249 9.2629 8.68765 9.22513 8.64987L7.07444 6.5L9.22513 4.35013C9.2629 4.31235 9.29286 4.26751 9.3133 4.21816C9.33374 4.16881 9.34426 4.11592 9.34426 4.0625C9.34426 4.00908 9.33374 3.95619 9.3133 3.90684C9.29286 3.85749 9.2629 3.81265 9.22513 3.77487C9.18735 3.7371 9.14251 3.70714 9.09316 3.6867C9.04381 3.66626 8.99092 3.65574 8.9375 3.65574C8.88408 3.65574 8.83119 3.66626 8.78184 3.6867C8.73249 3.70714 8.68765 3.7371 8.64987 3.77487L6.5 5.92556L4.35013 3.77487Z" fill="white"/>
<rect x="0.5" y="0.5" width="12" height="12" rx="6" stroke="#59966D"/>
</svg>
