<svg xmlns="http://www.w3.org/2000/svg" width="442" height="104" fill="none"><rect id="backgroundrect" width="100%" height="100%" x="0" y="0" fill="none" stroke="none"/>
<g class="currentLayer" style=""><title>Layer 1</title><path d="M129.6366166191101,51.663107421875 C129.65161661911011,53.740107421875 130.28261661911012,55.765907421875 131.44961661911012,57.484107421875 C132.61661661911012,59.202207421875 134.2666166191101,60.53540742187501 136.1926166191101,61.314607421874996 C138.1176166191101,62.093907421875 140.2306166191101,62.284207421874996 142.26461661911011,61.861507421875004 C144.2976166191101,61.438807421875 146.1606166191101,60.422107421875 147.6156166191101,58.940107421875 L154.4416166191101,65.545207421875 C151.6376166191101,68.439507421875 148.0236166191101,70.417707421875 144.0736166191101,71.219807421875 C140.1246166191101,72.022007421875 136.0246166191101,71.610607421875 132.31361661911012,70.039607421875 C128.6026166191101,68.468707421875 125.45361661911011,65.811707421875 123.2796166191101,62.417907421875 C121.10661661911011,59.024107421875 120.01061661911011,55.052207421875 120.13661661911011,51.024107421875 C120.2626166191101,46.996107421875 121.6046166191101,43.100307421875 123.98561661911012,39.848907421875 C126.36661661911012,36.597407421875 129.67561661911012,34.142307421875 133.4776166191101,32.806207421875 C137.2796166191101,31.470207421875003 141.39661661911012,31.315607421875 145.28861661911012,32.362907421875 C149.1796166191101,33.410107421875 152.66361661911012,35.610207421875 155.2816166191101,38.674007421875 L148.05761661911012,44.890007421875 C146.6736166191101,43.254807421875 144.8206166191101,42.084807421875 142.7486166191101,41.538507421875 C140.67661661911012,40.992207421875 138.4876166191101,41.096107421875 136.4776166191101,41.836107421875 C134.4666166191101,42.576107421875 132.7326166191101,43.916407421875 131.50961661911012,45.675307421875 C130.2856166191101,47.434207421875 129.63361661911011,49.526607421875 129.63961661911011,51.669007421875 L129.6366166191101,51.663107421875 z" fill="white" id="svg_1" class=""/><path d="M207.1146166191101,51.607307421875 C207.1146166191101,55.571207421875 205.93861661911012,59.446207421875 203.7366166191101,62.742107421875005 C201.5346166191101,66.038007421875 198.4046166191101,68.606807421875 194.74161661911012,70.123807421875 C191.0796166191101,71.640707421875 187.0496166191101,72.037607421875 183.1626166191101,71.264307421875 C179.2746166191101,70.491007421875 175.7036166191101,68.582107421875 172.9006166191101,65.779207421875 C170.0976166191101,62.976307421875006 168.18861661911012,59.405107421875 167.4156166191101,55.517307421875 C166.6416166191101,51.629507421875 167.03861661911012,47.599707421875 168.5556166191101,43.937507421875 C170.0726166191101,40.275307421875 172.6416166191101,37.145107421875 175.93761661911012,34.942907421875 C179.2336166191101,32.740607421875 183.1086166191101,31.565207421875 187.0726166191101,31.565207421875 C189.7046166191101,31.562507421874997 192.31261661911012,32.079007421875 194.7456166191101,33.085307421875 C197.1776166191101,34.091507421875 199.3886166191101,35.567707421875 201.2506166191101,37.429307421875 C203.1116166191101,39.291007421875 204.5876166191101,41.501507421875 205.5946166191101,43.934307421875 C206.6006166191101,46.367107421875 207.11661661911012,48.974607421875 207.1146166191101,51.607307421875 zM197.5976166191101,51.607307421875 C197.5976166191101,49.525607421875 196.97961661911012,47.490707421875 195.8236166191101,45.759907421875 C194.6666166191101,44.029107421875 193.0236166191101,42.680007421875 191.0996166191101,41.883407421875 C189.17661661911012,41.086807421875 187.0606166191101,40.878407421875 185.0186166191101,41.284507421875 C182.9776166191101,41.690607421875 181.1016166191101,42.693007421875 179.6296166191101,44.165007421875 C178.15761661911012,45.636907421875 177.1556166191101,47.512307421875 176.7496166191101,49.554007421875 C176.3436166191101,51.595607421875 176.55161661911012,53.711907421875 177.34861661911012,55.635107421875 C178.1446166191101,57.558307421875 179.4936166191101,59.202007421875 181.2246166191101,60.35860742187501 C182.95561661911012,61.515107421875 184.9906166191101,62.132307421875 187.0726166191101,62.132307421875 C188.4546166191101,62.133907421874994 189.8236166191101,61.862707421875 191.1016166191101,61.334307421874996 C192.3796166191101,60.805907421875006 193.5406166191101,60.03070742187499 194.5176166191101,59.053107421875 C195.4956166191101,58.075407421875 196.27061661911011,56.914507421875 196.7996166191101,55.636907421875 C197.3276166191101,54.359207421875 197.59861661911012,52.989907421875 197.5976166191101,51.607307421875 z" fill="white" id="svg_2" class=""/><path d="M248.5366166191101,32.237107421875 H258.05361661911013 V71.257307421875 H247.64061661911012 L232.3146166191101,47.973107421875 V71.151207421875 H222.79461661911012 V32.069107421875 H233.2636166191101 L248.5486166191101,55.247207421875 L248.5366166191101,32.237107421875 z" fill="white" id="svg_3" class=""/><path d="M309.5526166191101,32.125207421875 V41.642307421875 H297.2356166191101 V71.257407421875 H287.7186166191101 V41.642307421875 H275.4016166191101 V32.125207421875 H309.5526166191101 z" fill="white" id="svg_4" class=""/><path d="M355.0046166191101,54.575207421875 L361.7216166191101,71.257307421875 H351.2556166191101 L345.4316166191101,56.367207421875 H335.8586166191101 V71.257307421875 H326.3416166191101 V32.125107421875 H348.67361661911013 C351.3186166191101,32.115007421875 353.8946166191101,32.971907421875 356.0076166191101,34.564607421875 C358.1196166191101,36.157407421875 359.6516166191101,38.398207421875 360.3696166191101,40.944407421875 C361.0876166191101,43.490607421875 360.95261661911013,46.201907421875 359.9836166191101,48.663507421875 C359.0146166191101,51.125207421875 357.2656166191101,53.201607421875 355.0046166191101,54.575207421875 zM351.2556166191101,44.218107421875 C351.2466166191101,43.537007421875 350.9726166191101,42.886307421875 350.4906166191101,42.404907421875 C350.0086166191101,41.923507421875 349.3576166191101,41.649807421875 348.6766166191101,41.642107421875 H335.8586166191101 V46.850107421875 H348.67361661911013 C349.36361661911013,46.839307421875 350.0216166191101,46.556907421875 350.5046166191101,46.064207421875 C350.98861661911013,45.571607421875 351.2576166191101,44.908307421875 351.2556166191101,44.218107421875 z" fill="white" id="svg_5" class=""/><path d="M378.51261661911013,32.125207421875 H388.02961661911013 V71.145407421875 H378.51261661911013 V32.125207421875 z" fill="white" id="svg_6" class=""/><path d="M439.36361661911013,51.439407421875 C440.8186166191101,53.210307421875 441.73861661911013,55.359307421875 442.0156166191101,57.634407421875 C442.2926166191101,59.909507421875 441.9146166191101,62.216407421875005 440.9276166191101,64.284707421875 C439.9396166191101,66.352907421875 438.3836166191101,68.096907421875 436.44061661911013,69.312007421875 C434.4966166191101,70.527107421875 432.2476166191101,71.163207421875 429.9556166191101,71.145507421875 H407.6206166191101 V32.125207421875 H429.5636166191101 C431.8076166191101,32.123007421875 434.0086166191101,32.742907421875 435.9216166191101,33.916007421875 C437.8336166191101,35.089107421875 439.3846166191101,36.769507421875 440.39961661911013,38.770607421875 C441.4146166191101,40.771607421875 441.8556166191101,43.014907421875 441.6726166191101,45.251407421875 C441.4896166191101,47.487807421875 440.69061661911013,49.629807421875 439.36361661911013,51.439407421875 zM417.13761661911013,46.912207421875 H429.5636166191101 C430.2396166191101,46.889507421875 430.8796166191101,46.605207421875 431.3496166191101,46.119307421875 C431.8186166191101,45.633407421875 432.0816166191101,44.984007421875 432.0816166191101,44.308207421875 C432.0816166191101,43.632307421875 431.8186166191101,42.982907421875 431.3496166191101,42.497107421875 C430.8796166191101,42.011207421875 430.2396166191101,41.726907421875 429.5636166191101,41.704207421875 H417.13761661911013 V46.912207421875 zM432.5316166191101,59.058307421875 C432.5206166191101,58.354207421875 432.2316166191101,57.683007421875 431.7286166191101,57.190307421875 C431.2256166191101,56.697607421875 430.5476166191101,56.423107421875 429.8436166191101,56.426307421875 H417.13761661911013 V61.63430742187499 H429.9556166191101 C430.63761661911013,61.62660742187499 431.2896166191101,61.351907421875 431.7706166191101,60.869207421875004 C432.2526166191101,60.386507421874995 432.5256166191101,59.734207421875 432.5316166191101,59.052407421875 V59.058307421875 z" fill="white" id="svg_7" class=""/><path d="M94.2742166191101,61.059507421875 L62.371816619110106,61.168507421875006 L83.16551661911011,79.171107421875 C79.04651661911011,83.911607421875 73.90271661911011,87.652707421875 68.12371661911011,90.111007421875 C62.3447166191101,92.569207421875 56.08211661911011,93.680207421875 49.81021661911011,93.359707421875 C28.456516619110104,92.301607421875 11.288016619110108,74.912107421875 10.462816619110107,53.561407421875 C9.546116619110107,29.941207421875 28.497716619110108,10.432607421875 51.92051661911011,10.432607421875 C61.74731661911011,10.421407421875 71.2565166191101,13.912607421874998 78.7415166191101,20.279707421875 L86.7171166191101,13.409407421874999 C76.74061661911011,4.362547421875 63.62921661911011,-0.436872578125 50.169716619110105,0.031297421875000175 C23.095216619110108,0.933187421875 1.1019566191101076,22.793807421875 0.040896619110107224,49.859507421875 C-1.1203633808898923,79.430407421875 22.600116619110107,103.858607421875 51.914616619110106,103.858607421875 C59.33481661911011,103.858607421875 66.66851661911011,102.264607421875 73.41941661911011,99.184607421875 C80.1702166191101,96.104607421875 86.18061661911011,91.610407421875 91.0438166191101,86.006007421875 L98.73661661911011,92.661207421875 L94.2742166191101,61.059507421875 z" fill="#5A7864" id="svg_8" class=""/><path d="M94.4804166191101,42.491007421875 L98.93661661911011,10.907007421875 L78.0105166191101,29.030307421875 C74.6932166191101,25.236507421875 70.58821661911011,22.211907421875 65.98191661911011,20.167607421875 C61.3755166191101,18.123307421875 56.37871661911011,17.108407421875 51.33981661911011,17.193707421875 C33.216416619110106,17.488407421875 18.208416619110107,31.930607421875003 17.244616619110108,50.030307421875 C16.877316619110108,56.671507421875 18.426016619110108,63.278407421875 21.706416619110108,69.064607421875 C24.986816619110108,74.850707421875 29.860616619110104,79.572507421875 35.74791661911011,82.667807421875 C41.63511661911011,85.763107421875 48.28771661911011,87.101607421875 54.91401661911011,86.524007421875 C61.54021661911011,85.946407421875 67.86091661911011,83.477007421875 73.1238166191101,79.409707421875 L64.97431661911011,72.409707421875 C61.057416619110114,74.910207421875 56.50571661911011,76.235207421875 51.858716619110105,76.227707421875 C47.211716619110106,76.220107421875 42.66431661911011,74.880307421875 38.75561661911011,72.367107421875 C34.84681661911011,69.853907421875 31.740616619110106,66.272707421875 29.805216619110105,62.048007421875 C27.869716619110108,57.823207421875 27.18621661911011,53.132107421875 27.835616619110105,48.530707421875 C28.485016619110105,43.929307421875 30.44001661911011,39.610607421875 33.46911661911011,36.086507421875 C36.49811661911011,32.562407421875 40.474116619110106,29.980607421875 44.925716619110105,28.647307421875 C49.377316619110104,27.314007421875 54.117916619110105,27.285007421875 58.58551661911011,28.563807421874998 C63.05301661911011,29.842607421875 67.06031661911011,32.375507421875 70.13221661911011,35.862307421875 L62.5840166191101,42.399607421875 L94.4804166191101,42.491007421875 z" fill="#5A7864" id="svg_9" class=""/></g></svg>
