<svg width="36" height="37" viewBox="0 0 36 37" fill="none" xmlns="http://www.w3.org/2000/svg">
<path d="M29.25 4.48143C29.25 3.45005 29.6056 2.4609 30.2385 1.73161C30.8714 1.00231 31.7299 0.59259 32.625 0.59259C33.5201 0.59259 34.3786 1.00231 35.0115 1.73161C35.6444 2.4609 36 3.45005 36 4.48143V32.9996C36 34.031 35.6444 35.0201 35.0115 35.7494C34.3786 36.4787 33.5201 36.8884 32.625 36.8884C31.7299 36.8884 30.8714 36.4787 30.2385 35.7494C29.6056 35.0201 29.25 34.031 29.25 32.9996V32.4448C24.3855 29.2274 19.1475 27.6667 13.698 27.0445L14.6093 34.0755C14.6704 34.4501 14.6592 34.8356 14.5763 35.2046C14.4935 35.5736 14.341 35.917 14.1298 36.2104C13.9186 36.5037 13.6539 36.7398 13.3545 36.9018C13.055 37.0639 12.7283 37.1478 12.3975 37.1477H11.1645C10.7271 37.1477 10.2993 37.0008 9.93325 36.7249C9.56722 36.4491 9.27888 36.0564 9.1035 35.5948L4.941 26.5467C4.7895 26.5439 4.638 26.5413 4.4865 26.5389C3.29482 26.5253 2.15577 25.9713 1.31604 24.9969C0.476304 24.0226 0.00349165 22.7062 0 21.3331L0 16.148C0.00401576 14.7747 0.476032 13.4581 1.31437 12.482C2.1527 11.5058 3.29026 10.9482 4.482 10.9291C6.34506 10.9 8.20756 10.8352 10.0687 10.7347C16.9155 10.3354 23.9018 8.5336 29.25 5.03365V4.48143ZM31.5 4.48143V32.9996C31.5 33.3434 31.6185 33.6731 31.8295 33.9162C32.0405 34.1593 32.3266 34.2959 32.625 34.2959C32.9234 34.2959 33.2095 34.1593 33.4205 33.9162C33.6315 33.6731 33.75 33.3434 33.75 32.9996V4.48143C33.75 4.13764 33.6315 3.80792 33.4205 3.56482C33.2095 3.32172 32.9234 3.18515 32.625 3.18515C32.3266 3.18515 32.0405 3.32172 31.8295 3.56482C31.6185 3.80792 31.5 4.13764 31.5 4.48143ZM29.25 7.98139C23.976 11.1054 17.5297 12.7569 11.25 13.2521V24.2264C11.655 24.2523 12.0578 24.2834 12.4583 24.3197C18.2362 24.8097 23.9175 26.2486 29.25 29.4867V7.98139ZM9 24.0942V13.3869C7.50645 13.4499 6.01237 13.4948 4.518 13.5217C3.91674 13.5298 3.34226 13.8095 2.91813 14.3007C2.49399 14.7918 2.25409 15.4551 2.25 16.148V21.3331C2.25 22.759 3.258 23.9308 4.5135 23.949C6.00959 23.9689 7.50529 24.0173 9 24.0942ZM7.52175 26.6219L11.142 34.4955L11.1645 34.5577H12.3975L12.393 34.5214L11.3962 26.8319C10.1056 26.7422 8.81398 26.6713 7.52175 26.6193V26.6219Z" fill="#59966D"/>
</svg>
