<?xml version="1.0" encoding="UTF-8" standalone="no"?><!DOCTYPE svg PUBLIC "-//W3C//DTD SVG 1.1//EN" "http://www.w3.org/Graphics/SVG/1.1/DTD/svg11.dtd">
<svg width="120px" height="31px" version="1.1"
    xmlns="http://www.w3.org/2000/svg"
    xmlns:xlink="http://www.w3.org/1999/xlink" xml:space="preserve"
    xmlns:serif="http://www.serif.com/" style="fill-rule:evenodd;clip-rule:evenodd;stroke-linejoin:round;stroke-miterlimit:2;">
    <path d="M15.5,0.969c-2.874,0 -5.683,0.852 -8.073,2.449c-2.39,1.596 -4.252,3.866 -5.352,6.521c-1.1,2.655 -1.388,5.577 -0.827,8.396c0.561,2.819 1.945,5.408 3.977,7.44c2.032,2.032 4.621,3.416 7.44,3.977c2.819,0.561 5.741,0.273 8.396,-0.827c2.655,-1.1 4.925,-2.962 6.521,-5.352c1.597,-2.39 2.449,-5.199 2.449,-8.073c0,-3.854 -1.531,-7.55 -4.256,-10.275c-2.725,-2.725 -6.421,-4.256 -10.275,-4.256Zm-6.781,21.312l3.051,-9.154l6.103,6.103l-9.154,3.051Zm10.511,-4.408l-6.103,-6.103l9.154,-3.051l-3.051,9.154Z" style="fill:#4e66f8;fill-rule:nonzero;"/>
    </g>
</svg>