<svg width="138" height="31" viewBox="0 0 138 31" fill="none"
    xmlns="http://www.w3.org/2000/svg">
    <path d="M15.5 0.96875C12.626 0.96875 9.81653 1.82099 7.42688 3.41771C5.03722 5.01442 3.17472 7.28389 2.07488 9.93913C0.975046 12.5944 0.687279 15.5161 1.24797 18.3349C1.80866 21.1537 3.19263 23.7429 5.22486 25.7751C7.25709 27.8074 9.84631 29.1913 12.6651 29.752C15.4839 30.3127 18.4056 30.025 21.0609 28.9251C23.7161 27.8253 25.9856 25.9628 27.5823 23.5731C29.179 21.1835 30.0313 18.374 30.0313 15.5C30.0313 11.6461 28.5003 7.94999 25.7752 5.22485C23.05 2.49972 19.3539 0.96875 15.5 0.96875V0.96875ZM8.71876 22.2812L11.7703 13.1266L17.8734 19.2297L8.71876 22.2812ZM19.2297 17.8734L13.1266 11.7703L22.2813 8.71875L19.2297 17.8734Z" fill="#4E66F8"/>
    <path d="M38.221,14.877c0,-1.109 0.24,-2.099 0.72,-2.968c0.48,-0.869 1.15,-1.547 2.008,-2.032c0.859,-0.485 1.832,-0.728 2.92,-0.728c1.334,0 2.475,0.352 3.424,1.056c0.95,0.704 1.584,1.664 1.904,2.88l-3.008,0c-0.224,-0.469 -0.541,-0.827 -0.952,-1.072c-0.41,-0.245 -0.877,-0.368 -1.4,-0.368c-0.842,0 -1.525,0.293 -2.048,0.88c-0.522,0.587 -0.784,1.371 -0.784,2.352c0,0.981 0.262,1.765 0.784,2.352c0.523,0.587 1.206,0.88 2.048,0.88c0.523,0 0.99,-0.123 1.4,-0.368c0.411,-0.245 0.728,-0.603 0.952,-1.072l3.008,0c-0.32,1.216 -0.954,2.173 -1.904,2.872c-0.949,0.699 -2.09,1.048 -3.424,1.048c-1.088,0 -2.061,-0.243 -2.92,-0.728c-0.858,-0.485 -1.528,-1.16 -2.008,-2.024c-0.48,-0.864 -0.72,-1.851 -0.72,-2.96Z" style="fill:black"/>
    <path d="M56.189,20.621c-1.056,0 -2.024,-0.245 -2.904,-0.736c-0.88,-0.491 -1.578,-1.176 -2.096,-2.056c-0.517,-0.88 -0.776,-1.869 -0.776,-2.968c0,-1.099 0.259,-2.085 0.776,-2.96c0.518,-0.875 1.216,-1.557 2.096,-2.048c0.88,-0.491 1.848,-0.736 2.904,-0.736c1.056,0 2.024,0.245 2.904,0.736c0.88,0.491 1.574,1.173 2.08,2.048c0.507,0.875 0.76,1.861 0.76,2.96c0,1.099 -0.256,2.088 -0.768,2.968c-0.512,0.88 -1.205,1.565 -2.08,2.056c-0.874,0.491 -1.84,0.736 -2.896,0.736Zm0,-2.496c0.896,0 1.614,-0.299 2.152,-0.896c0.539,-0.597 0.808,-1.387 0.808,-2.368c0,-0.992 -0.269,-1.784 -0.808,-2.376c-0.538,-0.592 -1.256,-0.888 -2.152,-0.888c-0.906,0 -1.629,0.293 -2.168,0.88c-0.538,0.587 -0.808,1.381 -0.808,2.384c0,0.992 0.27,1.784 0.808,2.376c0.539,0.592 1.262,0.888 2.168,0.888Z" style="fill:black"/>
    <path d="M73.501,20.509l-2.736,0l-4.576,-6.928l0,6.928l-2.736,0l0,-11.232l2.736,0l4.576,6.96l0,-6.96l2.736,0l0,11.232Z" style="fill:black"/>
    <path d="M83.565,9.277l0,2.192l-2.976,0l0,9.04l-2.736,0l0,-9.04l-2.976,0l0,-2.192l8.688,0Z" style="fill:black"/>
    <path d="M90.669,20.509l-2.336,-4.24l-0.656,0l0,4.24l-2.736,0l0,-11.232l4.592,0c0.886,0 1.64,0.155 2.264,0.464c0.624,0.309 1.091,0.733 1.4,1.272c0.31,0.539 0.464,1.139 0.464,1.8c0,0.747 -0.21,1.413 -0.632,2c-0.421,0.587 -1.042,1.003 -1.864,1.248l2.592,4.448l-3.088,0Zm-2.992,-6.176l1.696,0c0.502,0 0.878,-0.123 1.128,-0.368c0.251,-0.245 0.376,-0.592 0.376,-1.04c0,-0.427 -0.125,-0.763 -0.376,-1.008c-0.25,-0.245 -0.626,-0.368 -1.128,-0.368l-1.696,0l0,2.784Z" style="fill:black"/>
    <rect x="95.373" y="9.277" width="2.736" height="11.232" style="fill:black"/>
    <path d="M106.893,14.749c0.651,0.139 1.174,0.461 1.568,0.968c0.395,0.507 0.592,1.085 0.592,1.736c0,0.939 -0.328,1.683 -0.984,2.232c-0.656,0.549 -1.57,0.824 -2.744,0.824l-5.232,0l0,-11.232l5.056,0c1.142,0 2.035,0.261 2.68,0.784c0.646,0.523 0.968,1.232 0.968,2.128c0,0.661 -0.173,1.211 -0.52,1.648c-0.346,0.437 -0.808,0.741 -1.384,0.912Zm-4.064,-0.928l1.792,0c0.448,0 0.792,-0.099 1.032,-0.296c0.24,-0.197 0.36,-0.488 0.36,-0.872c0,-0.384 -0.12,-0.677 -0.36,-0.88c-0.24,-0.203 -0.584,-0.304 -1.032,-0.304l-1.792,0l0,2.352Zm2.016,4.48c0.459,0 0.814,-0.104 1.064,-0.312c0.251,-0.208 0.376,-0.509 0.376,-0.904c0,-0.395 -0.13,-0.704 -0.392,-0.928c-0.261,-0.224 -0.621,-0.336 -1.08,-0.336l-1.984,0l0,2.48l2.016,0Z" style="fill:black"/>
</svg>
